# xmcd
#
# Track frame offsets:
#	150
#	15946
#	37681
#	59417
#	72034
#	87242
#	113247
#	125914
#	146975
#	162406
#
# Disc length: 2446 seconds
#
# Revision: 0
# Processed by: cddbd v1.5.2PL0 Copyright (c) Steve Scherf et al.
# Submitted via: dBpowerAMP V4.0
#
DISCID=85098c0a
DTITLE=Thom Swift - Into the Dirt
DYEAR=2008
DGENRE=Blues
TTITLE0=Straight
TTITLE1=Into the Dirt
TTITLE2=Healer Man
TTITLE3=My Dog
TTITLE4=Dust
TTITLE5=Mother's Arms
TTITLE6=Hacketts Cove Rag
TTITLE7=Glory Bell
TTITLE8=Crying Shame
TTITLE9=My Sweet Baby You
EXTD=
EXTT0=
EXTT1=
EXTT2=
EXTT3=
EXTT4=
EXTT5=
EXTT6=
EXTT7=
EXTT8=
EXTT9=
PLAYORDER=
